<svg id="Capa_1" data-name="Capa 1" xmlns="http://www.w3.org/2000/svg" viewBox="0 0 2679.64 836.94"><title>cosva</title><path d="M2601.28,522.85h108.36l-54.18,207Q2643,774.32,2643,810.44q0,34.74,11.12,34.73,12.51,0,34.73-20.84a318.23,318.23,0,0,0,37.51-44.46l15.29-22.22,30.56,27.78A308.6,308.6,0,0,1,2713.81,866q-68.07,72.25-119.48,72.25-59.74,0-59.74-91.7,0-15.28,1.39-23.62-9.74,34.74-38.9,62.52-55.57,52.8-126.43,52.8-69.46,0-111.15-47.24t-41.68-119.48q0-111.15,70.86-187.56,72.24-76.41,169.5-76.41,48.62,0,80.58,26.4t41.68,69.46ZM2486,567.31q-40.29,0-75,33.34t-54.18,82q-18.08,47.24-18.07,91.7,0,45.84,19.45,73.63t61.13,27.79q40.29,0,73.64-37.51,63.9-72.26,63.91-170.89Q2556.82,567.3,2486,567.31Z" transform="translate(-92.52 -101.32)" style="fill:#040006"/><path d="M659.18,747.11,686.32,772Q558.51,938.27,377.55,938.26q-118.76,0-200.19-75.78-39.59-36.19-62.21-93.87Q92.53,712.06,92.52,638.54t27.15-153.81a547.52,547.52,0,0,1,76.91-147,656.5,656.5,0,0,1,112-121A531.47,531.47,0,0,1,448.8,131.86q75.78-30.54,160.61-30.54,83.7,0,145.9,53.16,61.08,54.29,61.07,150.42,0,57.69-26,121A471.71,471.71,0,0,1,722.5,540.15a345.54,345.54,0,0,1-97.26,83.7q-56.57,33.93-113.11,33.93-55.42,0-88.22-36.2t-32.8-83.69q0-82.58,67.87-160.61,69-76.92,176.44-113.11L649,293.58q-54.29,18.1-101.79,59.95-48.63,43-75.78,91.61-26,47.51-26,83.7,0,73.51,81.43,73.52,57.67,0,116.5-49.77A400.31,400.31,0,0,0,736.08,432.7Q770,363.72,770,300.37t-41.85-104q-43-40.73-114.23-40.72t-147,43q-74.64,43-133.46,109.72-57.68,67.86-95,155-36.19,87.09-36.19,171.91,0,135.72,90.48,200.19,53.16,37.33,121,37.33,66.73,0,132.33-32.8t113.11-92.75Z" transform="translate(-92.52 -101.32)" style="fill:#040006"/><path d="M771.38,761.81q0-51.4,25-100t65.3-82q88.92-72.24,180.61-72.24,93.09,0,151.44,48.62,59.73,50,59.74,123.65t-40.29,133.38q-40.29,58.35-107,91.69T960.33,938.26q-79.19,0-134.76-50Q771.39,839.61,771.38,761.81ZM997.84,895.19q32,0,59.74-20.84t43.07-54.19a327.67,327.67,0,0,0,27.79-132q0-68.07-23.62-102.81-25-34.73-70.85-34.73T942.27,609q-44.46,59.75-44.46,152.82Q897.81,895.19,997.84,895.19Z" transform="translate(-92.52 -101.32)" style="fill:#040006"/><path d="M1272.93,884.07q-19.46-20.84-19.45-47.23t13.89-44.46q15.29-16.68,38.9-16.67a72.43,72.43,0,0,1,43.07,13.89q18.06,13.89,18.06,40.29,0,25-32,43.07,26.38,22.23,80.58,22.23,116.7,0,116.7-65.3,0-41.68-73.63-66.69L1398,741a174.92,174.92,0,0,1-54.19-34.73,90.43,90.43,0,0,1-25-55.57q0-47.24,30.57-80.58,59.75-62.52,176.44-62.52,58.35,0,102.81,22.23,44.46,20.84,44.46,55.57t-18.06,50q-16.68,15.27-40.29,15.28t-40.29-12.51q-16.68-12.49-16.67-34.73,0-23.61,26.39-40.29-15.27-11.11-57-11.11-40.29,0-73.63,11.11-31.95,12.51-32,33.35t23.62,34.73q23.63,13.89,57,25,34.74,12.49,68.08,27.78a159.9,159.9,0,0,1,58.35,43.07q23.63,29.17,23.62,70.86t-33.34,75q-63.91,65.29-176.45,65.3-58.35,0-104.19-15.29Q1292.38,906.31,1272.93,884.07Z" transform="translate(-92.52 -101.32)" style="fill:#040006"/><path d="M1901.51,862.63q56.71,0,116.13-40.51,58.08-40.51,93.18-94.53t35.11-97.23q-2.7,5.4-28.35,5.4t-40.52-16.2q-16.2-16.21-16.2-40.52,0-22.95,17.55-40.51,17.57-18.9,48.62-18.9,85.08,0,85.08,93.17,0,43.22-25.66,97.24-25.66,55.37-71.58,106.68t-117.48,86.43q-71.58,35.1-152.6,35.11-79.68,0-79.68-77,0-44.56,25.66-120.19,24.32-74.26,24.31-95.88,0-20.25-10.8-20.25-18.91,0-72.93,86.43l-43.21-24.31q98.58-167.46,181-167.45a53.36,53.36,0,0,1,39.16,16.2q16.2,16.2,16.2,54t-25.65,137.74q-27,101.28-27,106.68Q1871.8,862.64,1901.51,862.63Z" transform="translate(-92.52 -101.32)" style="fill:#040006"/></svg>