<?xml version="1.0"?>
<svg xmlns="http://www.w3.org/2000/svg" viewBox="0 0 512 512" width="512" height="512"><g id="outline"><path d="M256,496A240,240,0,0,0,425.705,86.294,240,240,0,1,0,86.3,425.706,238.426,238.426,0,0,0,256,496Zm158.392-81.608a222.761,222.761,0,0,1-96.934,57.1l-26.805-75.054a55.177,55.177,0,0,0-13.768-21.222,8,8,0,0,0-7.952-1.84A55.767,55.767,0,0,1,252,376a53.956,53.956,0,0,1-36.577-13.9,8,8,0,0,0-5.4-2.1h-94.18L90.55,328.381,246.458,160H272a8,8,0,0,0,6.51-3.35l35.762-50.067a10.4,10.4,0,0,1,6.446-4.168L344,97.758v29.025a10.486,10.486,0,0,1-4.174,8.347L315.2,153.6a8,8,0,0,0,2.27,13.989l29.835,9.945A125.757,125.757,0,0,0,387.148,184H468.22a224.545,224.545,0,0,1-53.828,230.392ZM199.428,157.029A8,8,0,0,0,192,152a52.6,52.6,0,0,1-46.675-28.271l4.154,2.493A68.735,68.735,0,0,0,184.8,136h.33a46.749,46.749,0,0,1,39.892,22.59l.369.613-17.524,18.925ZM97.608,97.608A224.235,224.235,0,0,1,462.1,168H387.148a109.8,109.8,0,0,1-34.784-5.645l-15.349-5.116,12.411-9.309A26.559,26.559,0,0,0,360,126.783V88a8,8,0,0,0-9.569-7.845L317.58,86.726a26.342,26.342,0,0,0-16.327,10.556L267.883,144h-24.92a8,8,0,0,0-5.87,2.565l-.47.507A62.861,62.861,0,0,0,185.13,120h-.33a52.727,52.727,0,0,1-27.093-7.5l-25.59-15.359a8,8,0,0,0-11.471,10.01l8.241,19.23a68.58,68.58,0,0,0,57.609,41.4l9.337,23.344L74.13,322.565A8,8,0,0,0,73.753,333l32,40A8,8,0,0,0,112,376h95.03A70.1,70.1,0,0,0,252,392a71.894,71.894,0,0,0,16.835-1.992,39.12,39.12,0,0,1,6.75,11.816l26.248,73.5A226.122,226.122,0,0,1,256,480,224,224,0,0,1,97.608,97.608Z"/><path d="M207.994,69.8a7.976,7.976,0,0,0,1.919-.234,193.769,193.769,0,0,1,84.5-1.724,8,8,0,0,0,3.184-15.68,209.754,209.754,0,0,0-91.5,1.869A8,8,0,0,0,207.994,69.8Z"/><path d="M172.8,446.689A206.548,206.548,0,0,0,256,464c2.764,0,5.562-.055,8.314-.164a8,8,0,1,0-.628-15.987c-2.545.1-5.131.151-7.686.151a190.644,190.644,0,0,1-76.8-15.973,8,8,0,1,0-6.406,14.662Z"/><circle cx="256" cy="240" r="16"/></g></svg>
